{"title":"[Fixed] Revolver Rani (2014) DVDScr - x264 - 1xCD - SAP [DDR]","uid":10048891,"size":739095057,"categoryP":"video","categoryS":"movies","magnet":"?xt=urn:btih:7e8f07f144e77c07bf6920f3eb9ca38aa7f84d5e&amp;dn=%5BFixed%5D+Revolver+Rani+%282014%29+DVDScr+-+x264+-+1xCD+-+SAP+%5BDDR%5D&amp;tr=udp%3A%2F%2Ftracker.openbittorrent.com%3A80&amp;tr=udp%3A%2F%2Fopen.demonii.com%3A1337&amp;tr=udp%3A%2F%2Ftracker.coppersurfer.tk%3A6969&amp;tr=udp%3A%2F%2Fexodus.desync.com%3A6969","seeders":1,"leechers":0,"uploader":"SaM","files":11,"time":1398582400,"description":"- BollyWooD MoviE -\nRevolver Rani\n\n**DVDSCREENER / x264 / 1xCD / SAP**\n\nGeneral\nComplete name                            : Revolver Rani (2014) DVDScr - x264 - 1xCD - SAP [DDR]\nFormat                                  : MPEG-4\nFormat profile                          : Base Media\nCodec ID                                : isom\nFile size                                : 697 MiB\nDuration                                : 2h 6mn\nOverall bit rate                        : 771 Kbps\n\nVideo\nID                                      : 1\nFormat                                  : AVC\nFormat/Info                              : Advanced Video Codec\nFormat profile                          : &lt;a class=&quot;__cf_email__&quot; href=&quot;/cdn-cgi/l/email-protection&quot; data-cfemail=&quot;91dcf0f8ffd1dda2bfa0&quot;&gt;[email&amp;#160;protected]&lt;/a&gt;&lt;script cf-hash='f9e31' type=&quot;text/javascript&quot;&gt;\n/* &lt;![CDATA[ */!function(){try{var t=&quot;currentScript&quot;in document?document.currentScript:function(){for(var t=document.getElementsByTagName(&quot;script&quot;),e=t.length;e--;)if(t[e].getAttribute(&quot;cf-hash&quot;))return t[e]}();if(t&amp;&amp;t.previousSibling){var e,r,n,i,c=t.previousSibling,a=c.getAttribute(&quot;data-cfemail&quot;);if(a){for(e=&quot;&quot;,r=parseInt(a.substr(0,2),16),n=2;a.length-n;n+=2)i=parseInt(a.substr(n,2),16)^r,e+=String.fromCharCode(i);e=document.createTextNode(e),c.parentNode.replaceChild(e,c)}}}catch(u){}}();/* ]]&gt; */&lt;/script&gt;\nFormat settings, CABAC                  : Yes\nFormat settings, ReFrames                : 3 frames\nCodec ID                                : avc1\nCodec ID/Info                            : Advanced Video Coding\nDuration                                : 2h 6mn\nBit rate                                : 691 Kbps\nWidth                                    : 608 pixels\nHeight                                  : 256 pixels\nDisplay aspect ratio                    : 2.40:1\nFrame rate mode                          : Variable\nFrame rate                              : 23.681 fps\nOriginal frame rate                      : 23.976 fps\nMinimum frame rate                      : 0.011 fps\nMaximum frame rate                      : 23.976 fps\nColor space                              : YUV\nChroma subsampling                      : 4:2:0\nBit depth                                : 8 bits\nScan type                                : Progressive\nBits/(Pixel*Frame)                      : 0.187\nStream size                              : 621 MiB (89%)\n\n\nAudio\nID                                      : 2\nFormat                                  : MPEG Audio\nFormat version                          : Version 1\nFormat profile                          : Layer 3\nMode                                    : Joint stereo\nMode extension                          : MS Stereo\nCodec ID                                : 6B\nDuration                                : 2h 6mn\nBit rate mode                            : Constant\nBit rate                                : 80.0 Kbps\nChannel(s)                              : 2 channels\nSampling rate                            : 32.0 KHz\nCompression mode                        : Lossy\nStream size                              : 38.3 MiB (5%)\n\n[ SCREENS ]\n\n &lt;a href=&quot;\nhttp://imageshack.com/a/img836/1025/q6rf.png&quot; rel=&quot;nofollow&quot; target=&quot;_NEW&quot;&gt;\nhttp://imageshack.com/a/img836/1025/q6rf.png&lt;/a&gt;\n &lt;a href=&quot;\nhttp://imageshack.com/a/img841/800/hhvd.png&quot; rel=&quot;nofollow&quot; target=&quot;_NEW&quot;&gt;\nhttp://imageshack.com/a/img841/800/hhvd.png&lt;/a&gt;\n &lt;a href=&quot;\nhttp://imageshack.com/a/img835/4465/ouvi.png&quot; rel=&quot;nofollow&quot; target=&quot;_NEW&quot;&gt;\nhttp://imageshack.com/a/img835/4465/ouvi.png&lt;/a&gt;\n &lt;a href=&quot;\nhttp://imageshack.com/a/img845/9906/1vsw.png&quot; rel=&quot;nofollow&quot; target=&quot;_NEW&quot;&gt;\nhttp://imageshack.com/a/img845/9906/1vsw.png&lt;/a&gt;\n &lt;a href=&quot;\nhttp://imageshack.com/a/img845/2159/lex2.png&quot; rel=&quot;nofollow&quot; target=&quot;_NEW&quot;&gt;\nhttp://imageshack.com/a/img845/2159/lex2.png&lt;/a&gt;\n &lt;a href=&quot;\nhttp://imageshack.com/a/img843/3075/8thp.png&quot; rel=&quot;nofollow&quot; target=&quot;_NEW&quot;&gt;\nhttp://imageshack.com/a/img843/3075/8thp.png&lt;/a&gt;\n &lt;a href=&quot;\nhttp://imageshack.com/a/img845/540/qo15.png&quot; rel=&quot;nofollow&quot; target=&quot;_NEW&quot;&gt;\nhttp://imageshack.com/a/img845/540/qo15.png&lt;/a&gt;\n &lt;a href=&quot;\nhttp://imageshack.com/a/img842/2878/dmk7.png&quot; rel=&quot;nofollow&quot; target=&quot;_NEW&quot;&gt;\nhttp://imageshack.com/a/img842/2878/dmk7.png&lt;/a&gt;\n\n\n\n[ NOTICE ]\n\nDownload NEW Torrent\nSorry For The Inconvenience.","torrent":{"xt":"urn:btih:7e8f07f144e77c07bf6920f3eb9ca38aa7f84d5e","amp;dn":"%5BFixed%5D+Revolver+Rani+%282014%29+DVDScr+-+x264+-+1xCD+-+SAP+%5BDDR%5D","amp;tr":["udp%3A%2F%2Ftracker.openbittorrent.com%3A80","udp%3A%2F%2Fopen.demonii.com%3A1337","udp%3A%2F%2Ftracker.coppersurfer.tk%3A6969","udp%3A%2F%2Fexodus.desync.com%3A6969"],"infoHash":"7e8f07f144e77c07bf6920f3eb9ca38aa7f84d5e","infoHashBuffer":{"type":"Buffer","data":[126,143,7,241,68,231,124,7,191,105,32,243,235,156,163,138,167,248,77,94]},"announce":[],"urlList":[]}}